<svg id="Warstwa_1" data-name="Warstwa 1" xmlns="http://www.w3.org/2000/svg" viewBox="0 0 290.04 296.68"><defs><style>.cls-1{fill:#fff;}.cls-2{fill:#284642;fill-rule:evenodd;}</style></defs><path class="cls-1" d="M106.08,225.54a4.62,4.62,0,0,1,3.41,1.45,4.73,4.73,0,0,1,1.43,3.45v25.79a4.73,4.73,0,0,1-1.43,3.45,4.62,4.62,0,0,1-3.41,1.45H6.58a4.6,4.6,0,0,1-3.4-1.45,4.74,4.74,0,0,1-1.44-3.45V230.44A4.74,4.74,0,0,1,3.18,227a4.6,4.6,0,0,1,3.4-1.45Z" transform="translate(-1.74 -1.13)"/><path class="cls-1" d="M218.92,255.68l-14.71,37.23a10.05,10.05,0,0,1-2.15,3.09c-1.07,1.21-2.81,1.82-5.2,1.82H171.23a7.71,7.71,0,0,1-5.74-2.18,8.35,8.35,0,0,1-2.51-4.73l-16.5-115.68v-.54a3.73,3.73,0,0,1,1.08-2.73,4,4,0,0,1,2.87-1.27h33.35a7.48,7.48,0,0,1,4.48,1.09,5.16,5.16,0,0,1,2,3.82l6.1,51.21,7.35-22.7a13.36,13.36,0,0,1,1.61-3.27q1.26-2,4.48-2h18.29c2.15,0,3.65.67,4.48,2a13.46,13.46,0,0,1,1.62,3.27l7.35,22.52,6.09-51a5.46,5.46,0,0,1,1.8-3.82,8.33,8.33,0,0,1,4.66-1.09H287.4a3.39,3.39,0,0,1,2.69,1.27,3.47,3.47,0,0,1,1.26,2.73v.54l-16.5,115.68a8.35,8.35,0,0,1-2.51,4.73,7.69,7.69,0,0,1-5.73,2.18H241a7.26,7.26,0,0,1-5.38-1.82,11.24,11.24,0,0,1-2-3.09Z" transform="translate(-1.74 -1.13)"/><path class="cls-2" d="M217.92,96.87A21.87,21.87,0,1,0,196.05,75,21.87,21.87,0,0,0,217.92,96.87Zm0,52A73.87,73.87,0,1,0,144.05,75,73.87,73.87,0,0,0,217.92,148.87Z" transform="translate(-1.74 -1.13)"/><path class="cls-1" d="M52.5,53.81q-.59,15.84,0,32.07.38,8.78,4.06,12.22,3.88,3.24,10.27,3.24a16.16,16.16,0,0,0,8.72-2.29q3.87-2.3,5.81-8a9.26,9.26,0,0,1,2.32-4.39,8.26,8.26,0,0,1,4.85-1.14H128A3.71,3.71,0,0,1,131,86.83a3.62,3.62,0,0,1,1.35,2.87q-.2,13-5.81,22.33a47.2,47.2,0,0,1-14.72,15.08A67.35,67.35,0,0,1,91,135.89a106.86,106.86,0,0,1-24,2.67,106.87,106.87,0,0,1-25.57-2.86,61.09,61.09,0,0,1-20.34-9.35,45.72,45.72,0,0,1-13.55-16q-4.84-9.74-5.43-23.48Q1.74,79,1.74,70t.39-17.18q.59-13.36,5.62-23.1a47.74,47.74,0,0,1,13.75-16A58.4,58.4,0,0,1,41.84,4.19,98.66,98.66,0,0,1,67,1.13,100.41,100.41,0,0,1,91,4a64.29,64.29,0,0,1,20.73,8.59,46.61,46.61,0,0,1,14.72,15.27Q132.12,37,132.3,50a4.18,4.18,0,0,1-1.35,3A4,4,0,0,1,128,54.19H88.53q-3.3,0-4.65-1.14a10.3,10.3,0,0,1-2.52-4.39q-2.13-6.1-5.81-8.21a17.32,17.32,0,0,0-8.72-2.1q-6.39,0-10.27,3.44Q52.89,45,52.5,53.81Z" transform="translate(-1.74 -1.13)"/></svg>