<svg id="Warstwa_1" data-name="Warstwa 1" xmlns="http://www.w3.org/2000/svg" viewBox="0 0 281.4 95.73"><defs><style>.cls-1{fill:#fff;}</style></defs><path class="cls-1" d="M20,25.1a1,1,0,0,1-.94.95H16.38a1,1,0,0,1-.95-.95v-13H8.57V25.1a1,1,0,0,1-.94.95H5a1,1,0,0,1-1-.95v-13H1.71a.94.94,0,0,1-.66-.28.91.91,0,0,1-.28-.67V8.79a.87.87,0,0,1,.28-.66.9.9,0,0,1,.66-.28H4V6.27a7.36,7.36,0,0,1,.49-2.83,4.8,4.8,0,0,1,1.4-1.93,5.56,5.56,0,0,1,2.17-1A12.2,12.2,0,0,1,11,.15H19a.87.87,0,0,1,.66.28.87.87,0,0,1,.28.66V3.4a1,1,0,0,1-.94.95H11.3a3.52,3.52,0,0,0-2,.49,2,2,0,0,0-.7,1.78V7.85H19a1,1,0,0,1,.94.94Z" transform="translate(-0.77 -0.15)"/><path class="cls-1" d="M41.82,25.1a.91.91,0,0,1-.28.67.92.92,0,0,1-.66.28H38.22a1,1,0,0,1-.95-.95V16.21a5.29,5.29,0,0,0-1-3.36,3.56,3.56,0,0,0-3-1.26,3.7,3.7,0,0,0-2.94,1.26,5.08,5.08,0,0,0-1.05,3.36V25.1a.91.91,0,0,1-.28.67.92.92,0,0,1-.66.28H25.69a1,1,0,0,1-1-.95V8.79a1,1,0,0,1,1-.94h2.66a.88.88,0,0,1,.66.28.87.87,0,0,1,.28.66V9.6a7.87,7.87,0,0,1,2.14-1.51,6.5,6.5,0,0,1,2.9-.59,8.49,8.49,0,0,1,3.57.66A6,6,0,0,1,40.21,10a6.61,6.61,0,0,1,1.23,2.62,12.58,12.58,0,0,1,.38,3.12Z" transform="translate(-0.77 -0.15)"/><path class="cls-1" d="M53.42,7.5a8,8,0,0,1,1.93.21,7.08,7.08,0,0,1,1.5.52,5,5,0,0,1,1.12.7,5.61,5.61,0,0,1,.74.67V2.14A.87.87,0,0,1,59,1.48a.87.87,0,0,1,.66-.28h2.66a.91.91,0,0,1,.67.28.91.91,0,0,1,.28.66v23a1,1,0,0,1-.95.95H59.65a1,1,0,0,1-.94-.95v-.8A8.75,8.75,0,0,1,58,25a6.37,6.37,0,0,1-1.12.66,7.07,7.07,0,0,1-1.5.53,8,8,0,0,1-1.93.21,7.48,7.48,0,0,1-3.18-.67,8.11,8.11,0,0,1-2.42-1.82,9.46,9.46,0,0,1-1.57-2.62,9.85,9.85,0,0,1-.63-3.12c0-.35,0-.76,0-1.22s0-.88,0-1.23a9.45,9.45,0,0,1,.63-3.08A8.78,8.78,0,0,1,47.82,10,7.36,7.36,0,0,1,50.24,8.2,7.07,7.07,0,0,1,53.42,7.5ZM50.17,16a9.17,9.17,0,0,0,0,2,4.7,4.7,0,0,0,1.4,3.29,4.42,4.42,0,0,0,2.9,1,4.07,4.07,0,0,0,4.24-3.92A11.86,11.86,0,0,0,58.78,17a11.72,11.72,0,0,0-.07-1.33,4.22,4.22,0,0,0-1.37-2.87,4.11,4.11,0,0,0-2.87-1.05,4.29,4.29,0,0,0-2.9,1A4.54,4.54,0,0,0,50.17,16Z" transform="translate(-0.77 -0.15)"/><path class="cls-1" d="M80.54,25.07,73.61,9a1,1,0,0,1,0-.25,1,1,0,0,1,.94-.94h2.63a1,1,0,0,1,.73.28,1.4,1.4,0,0,1,.42.56L83,19.5,87.61,8.69A1.4,1.4,0,0,1,88,8.13a1.07,1.07,0,0,1,.74-.28h2.62a1,1,0,0,1,1,.94.93.93,0,0,1,0,.25L82.47,31.86a1.55,1.55,0,0,1-.42.56,1.12,1.12,0,0,1-.74.28H78.69a1,1,0,0,1-.67-.28.91.91,0,0,1-.28-.67.61.61,0,0,1,0-.24Z" transform="translate(-0.77 -0.15)"/><path class="cls-1" d="M102.79,7.5a9.53,9.53,0,0,1,3.47.59A8.12,8.12,0,0,1,109,9.74a7.69,7.69,0,0,1,1.82,2.45,7.7,7.7,0,0,1,.81,3c0,.21,0,.47,0,.8v2c0,.3,0,.56,0,.77a9,9,0,0,1-.81,3A7.8,7.8,0,0,1,109,24.19a8.38,8.38,0,0,1-2.69,1.61,9.53,9.53,0,0,1-3.47.6,9.78,9.78,0,0,1-3.5-.6,8.83,8.83,0,0,1-2.69-1.61,8,8,0,0,1-1.79-2.45,8.71,8.71,0,0,1-.8-3c0-.21-.05-.47-.07-.77V16c0-.33,0-.59.07-.8a8,8,0,0,1,.77-3A8.33,8.33,0,0,1,96.6,9.74a8.55,8.55,0,0,1,2.69-1.65A9.78,9.78,0,0,1,102.79,7.5ZM107,15.37a4.2,4.2,0,0,0-.53-1.78,3.21,3.21,0,0,0-1-1.16,3.36,3.36,0,0,0-1.29-.56,5.79,5.79,0,0,0-1.44-.17,5.66,5.66,0,0,0-1.43.17,3.34,3.34,0,0,0-1.3.56,3.49,3.49,0,0,0-1,1.16,4.52,4.52,0,0,0-.49,1.78c0,.19,0,.42-.07.7v1.79a6.39,6.39,0,0,0,.07.66,4.89,4.89,0,0,0,.49,1.82,3.54,3.54,0,0,0,1,1.12,4,4,0,0,0,1.3.6,7.46,7.46,0,0,0,1.43.14,7.64,7.64,0,0,0,1.44-.14,4,4,0,0,0,1.29-.6,3.24,3.24,0,0,0,1-1.12,4.54,4.54,0,0,0,.53-1.82,5.62,5.62,0,0,0,0-.66V16.07A6.81,6.81,0,0,0,107,15.37Z" transform="translate(-0.77 -0.15)"/><path class="cls-1" d="M115.36,8.79a1,1,0,0,1,.94-.94H119a1,1,0,0,1,1,.94v8.89a5.81,5.81,0,0,0,.87,3.36,3.94,3.94,0,0,0,5.78,0,5.35,5.35,0,0,0,1-3.36V8.79a1,1,0,0,1,.94-.94h2.66a1,1,0,0,1,1,.94V25.1a1,1,0,0,1-1,.95h-2.66a1,1,0,0,1-.94-.95v-.8a9.68,9.68,0,0,1-2,1.47,6.05,6.05,0,0,1-2.87.63,8.26,8.26,0,0,1-3.53-.67A5.87,5.87,0,0,1,116.9,24a6.91,6.91,0,0,1-1.19-2.59,13.58,13.58,0,0,1-.35-3.15Z" transform="translate(-0.77 -0.15)"/><path class="cls-1" d="M145.37,12.05a4.16,4.16,0,0,0-3,.94,4.14,4.14,0,0,0-.91,3v9.1a1,1,0,0,1-.95.95h-2.66a.92.92,0,0,1-.66-.28.91.91,0,0,1-.28-.67V8.79a.87.87,0,0,1,.28-.66.88.88,0,0,1,.66-.28h2.66a1,1,0,0,1,.95.94V9.6a7.08,7.08,0,0,1,1.92-1.3,7,7,0,0,1,2.73-.45h1.58a.88.88,0,0,1,.66.28.87.87,0,0,1,.28.66V11.1a.91.91,0,0,1-.28.67.92.92,0,0,1-.66.28Z" transform="translate(-0.77 -0.15)"/><path class="cls-1" d="M168.39,26.4a7.75,7.75,0,0,1-3.47-.74,6.7,6.7,0,0,1-1.08-.66,8.75,8.75,0,0,1-.74-.7v7.45a1,1,0,0,1-.94,1H159.5a1,1,0,0,1-.95-1v-23a1,1,0,0,1,.95-.94h2.66a1,1,0,0,1,.94.94V9.6a5.61,5.61,0,0,1,.74-.67,5.16,5.16,0,0,1,1.08-.7,7.95,7.95,0,0,1,3.47-.73A7.35,7.35,0,0,1,174,10a7.88,7.88,0,0,1,1.58,2.62,9,9,0,0,1,.66,3.08c0,.35,0,.76,0,1.23s0,.87,0,1.22a9.37,9.37,0,0,1-.66,3.12A8.41,8.41,0,0,1,174,23.91a7.48,7.48,0,0,1-2.41,1.82A7.28,7.28,0,0,1,168.39,26.4Zm3.25-8.47a9.17,9.17,0,0,0,0-2,4.54,4.54,0,0,0-1.4-3.26,4.29,4.29,0,0,0-2.9-1,4.33,4.33,0,0,0-2.91,1,4.24,4.24,0,0,0-1.33,2.91A11.72,11.72,0,0,0,163,17a11.86,11.86,0,0,0,.07,1.33,4.06,4.06,0,0,0,4.24,3.92,4.42,4.42,0,0,0,2.9-1A4.7,4.7,0,0,0,171.64,17.93Z" transform="translate(-0.77 -0.15)"/><path class="cls-1" d="M179.25,17a11.05,11.05,0,0,1,.6-3.68,8.79,8.79,0,0,1,1.71-3,8.08,8.08,0,0,1,2.7-2,8.47,8.47,0,0,1,3.57-.73,8.23,8.23,0,0,1,3.53.73,7.82,7.82,0,0,1,2.73,1.93A8,8,0,0,1,195.81,13a9.25,9.25,0,0,1,.63,3.4V18a.91.91,0,0,1-.28.67,1,1,0,0,1-.67.28H183.8a3.17,3.17,0,0,0,.32,1.43,3.41,3.41,0,0,0,.91,1,3.88,3.88,0,0,0,1.29.63,5.5,5.5,0,0,0,1.51.21,6.49,6.49,0,0,0,1.82-.21,4.26,4.26,0,0,0,1.15-.6,3.46,3.46,0,0,1,.63-.38,1.76,1.76,0,0,1,.67-.11h2.8a.87.87,0,0,1,.66.28.75.75,0,0,1,.28.67,2.83,2.83,0,0,1-.56,1.26,5.59,5.59,0,0,1-1.5,1.5,9.88,9.88,0,0,1-2.52,1.26,10.17,10.17,0,0,1-3.43.53,9.31,9.31,0,0,1-3.57-.67,7.89,7.89,0,0,1-2.7-2,8.89,8.89,0,0,1-1.71-3A11.82,11.82,0,0,1,179.25,17Zm8.58-5.25a4.42,4.42,0,0,0-1.75.31,3.49,3.49,0,0,0-1.19.77,3.32,3.32,0,0,0-.77,1.05,4.32,4.32,0,0,0-.32,1.09h7.91a4.61,4.61,0,0,0-.28-1.09,2.28,2.28,0,0,0-.63-1.05,2.77,2.77,0,0,0-1.15-.77A4.48,4.48,0,0,0,187.83,11.7Z" transform="translate(-0.77 -0.15)"/><path class="cls-1" d="M208.71,12.05a4.19,4.19,0,0,0-3.05.94,4.14,4.14,0,0,0-.91,3v9.1a.91.91,0,0,1-.28.67.92.92,0,0,1-.66.28h-2.66a1,1,0,0,1-.67-.28.91.91,0,0,1-.28-.67V8.79a.87.87,0,0,1,.28-.66.91.91,0,0,1,.67-.28h2.66a.88.88,0,0,1,.66.28.87.87,0,0,1,.28.66V9.6a7.13,7.13,0,0,1,1.93-1.3,7,7,0,0,1,2.73-.45H211a1,1,0,0,1,1,.94V11.1a1,1,0,0,1-1,1Z" transform="translate(-0.77 -0.15)"/><path class="cls-1" d="M220.93,7.85h4.87a.9.9,0,0,1,.66.28.87.87,0,0,1,.28.66V11.1a.91.91,0,0,1-.28.67.94.94,0,0,1-.66.28h-4.87V25.1a.91.91,0,0,1-.28.67.94.94,0,0,1-.66.28h-2.66a1,1,0,0,1-.67-.28.91.91,0,0,1-.28-.67v-13h-2.31a1,1,0,0,1-.94-1V8.79a1,1,0,0,1,.94-.94h2.31V6.27a7.18,7.18,0,0,1,.49-2.83,4.71,4.71,0,0,1,1.4-1.93,5.56,5.56,0,0,1,2.17-1,12.14,12.14,0,0,1,2.87-.31h2.84a.9.9,0,0,1,.66.28.87.87,0,0,1,.28.66V3.4a.91.91,0,0,1-.28.67.94.94,0,0,1-.66.28h-2.49a3.5,3.5,0,0,0-2,.49,2,2,0,0,0-.7,1.78Z" transform="translate(-0.77 -0.15)"/><path class="cls-1" d="M228.46,17a11.05,11.05,0,0,1,.6-3.68,8.79,8.79,0,0,1,1.71-3,8.08,8.08,0,0,1,2.7-2A8.47,8.47,0,0,1,237,7.5a8.23,8.23,0,0,1,3.53.73,7.82,7.82,0,0,1,2.73,1.93A8,8,0,0,1,245,13a9.25,9.25,0,0,1,.63,3.4V18a1,1,0,0,1-1,.95H233a3.17,3.17,0,0,0,.32,1.43,3.41,3.41,0,0,0,.91,1,3.88,3.88,0,0,0,1.29.63,5.45,5.45,0,0,0,1.51.21,6.49,6.49,0,0,0,1.82-.21,4.41,4.41,0,0,0,1.15-.6,3.46,3.46,0,0,1,.63-.38,1.76,1.76,0,0,1,.67-.11h2.8a.87.87,0,0,1,.66.28.75.75,0,0,1,.28.67,2.83,2.83,0,0,1-.56,1.26,5.74,5.74,0,0,1-1.5,1.5,9.88,9.88,0,0,1-2.52,1.26,10.17,10.17,0,0,1-3.43.53,9.31,9.31,0,0,1-3.57-.67,7.89,7.89,0,0,1-2.7-2,8.89,8.89,0,0,1-1.71-3A11.82,11.82,0,0,1,228.46,17ZM237,11.7a4.42,4.42,0,0,0-1.75.31,3.49,3.49,0,0,0-1.19.77,3.17,3.17,0,0,0-.77,1.05,3.94,3.94,0,0,0-.32,1.09h7.91a4.61,4.61,0,0,0-.28-1.09,2.28,2.28,0,0,0-.63-1.05,2.77,2.77,0,0,0-1.15-.77A4.48,4.48,0,0,0,237,11.7Z" transform="translate(-0.77 -0.15)"/><path class="cls-1" d="M253.09,15.72A8.88,8.88,0,0,0,253,17a8.83,8.83,0,0,0,.07,1.22,5.28,5.28,0,0,0,.49,1.86,4.08,4.08,0,0,0,.94,1.26,4.22,4.22,0,0,0,2.73.91,6.72,6.72,0,0,0,1.47-.14,4,4,0,0,0,1-.39,3.82,3.82,0,0,0,.7-.59,6.52,6.52,0,0,0,.59-.77,5.38,5.38,0,0,1,.49-.63.88.88,0,0,1,.67-.32h2.66a.88.88,0,0,1,.66.28.75.75,0,0,1,.28.67,5,5,0,0,1-.52,1.78,6.7,6.7,0,0,1-1.54,2,8.71,8.71,0,0,1-2.63,1.61,10.12,10.12,0,0,1-3.85.67,9,9,0,0,1-3.46-.63,9.44,9.44,0,0,1-2.7-1.75,8.92,8.92,0,0,1-1.78-2.56,9.89,9.89,0,0,1-.77-3.08,12,12,0,0,1-.07-1.4,12.8,12.8,0,0,1,.07-1.43,8.62,8.62,0,0,1,.77-3.08,8.28,8.28,0,0,1,1.78-2.56,8,8,0,0,1,2.66-1.75,9,9,0,0,1,3.5-.66,10.13,10.13,0,0,1,3.85.66,8.22,8.22,0,0,1,2.63,1.65,6.34,6.34,0,0,1,1.54,2,5,5,0,0,1,.52,1.79.75.75,0,0,1-.28.66.88.88,0,0,1-.66.28h-2.66a.87.87,0,0,1-.67-.31,5.38,5.38,0,0,1-.49-.63,4.46,4.46,0,0,0-.59-.74,2.52,2.52,0,0,0-.7-.59,3,3,0,0,0-1-.42,6.15,6.15,0,0,0-1.47-.14,4.34,4.34,0,0,0-1.43.24,3.66,3.66,0,0,0-1.3.7,3.52,3.52,0,0,0-.94,1.23A5.17,5.17,0,0,0,253.09,15.72Z" transform="translate(-0.77 -0.15)"/><path class="cls-1" d="M275.68,19.47a2.61,2.61,0,0,0,.56,1.75,2.93,2.93,0,0,0,2.17.63h2.13a1,1,0,0,1,.95.94V25.1a1,1,0,0,1-.95.95H278a7.42,7.42,0,0,1-5.07-1.58,6.33,6.33,0,0,1-1.75-4.9V12.05h-2.31a1,1,0,0,1-.67-.28.91.91,0,0,1-.28-.67V8.79a.87.87,0,0,1,.28-.66.91.91,0,0,1,.67-.28h2.31V2.14a.87.87,0,0,1,.28-.66.88.88,0,0,1,.66-.28h2.66a.91.91,0,0,1,.67.28.91.91,0,0,1,.28.66V7.85h4.51a1,1,0,0,1,.95.94V11.1a1,1,0,0,1-.95,1h-4.51Z" transform="translate(-0.77 -0.15)"/><path class="cls-1" d="M32.89,73.08,38,56.77a5.11,5.11,0,0,1,.45-.91,1.35,1.35,0,0,1,1.14-.45H44a1.49,1.49,0,0,1,1.08.45,1.52,1.52,0,0,1,.46,1.08,1.16,1.16,0,0,1-.06.4L36.82,83.62a3.23,3.23,0,0,1-.51,1,1.35,1.35,0,0,1-1.14.46H30.84a1.33,1.33,0,0,1-1.14-.46,8.91,8.91,0,0,1-.52-1L23.65,68.4,18.13,83.62a5.87,5.87,0,0,1-.57,1,1.2,1.2,0,0,1-1.09.46H12.14A1.35,1.35,0,0,1,11,84.59a3.23,3.23,0,0,1-.51-1L1.88,57.34a1.16,1.16,0,0,1-.06-.4,1.52,1.52,0,0,1,.46-1.08,1.47,1.47,0,0,1,1.08-.45H7.69a1.19,1.19,0,0,1,1.09.45,3.65,3.65,0,0,1,.51.91l5.13,16.31,5.47-16.31a2.31,2.31,0,0,1,.52-.91,1.47,1.47,0,0,1,1.08-.45h4.33a1.32,1.32,0,0,1,1,.45,2.14,2.14,0,0,1,.57.91Z" transform="translate(-0.77 -0.15)"/><path class="cls-1" d="M63.4,54.84a15.68,15.68,0,0,1,5.65,1,13.21,13.21,0,0,1,4.39,2.68,13.39,13.39,0,0,1,4.27,8.9,11.53,11.53,0,0,1,.06,1.31v3.19a11,11,0,0,1-.06,1.25A14.17,14.17,0,0,1,76.4,78a12.74,12.74,0,0,1-3,4,13.62,13.62,0,0,1-4.39,2.63,15.68,15.68,0,0,1-5.65,1,16.1,16.1,0,0,1-5.69-1A14.29,14.29,0,0,1,53.32,82a13.06,13.06,0,0,1-2.91-4,14.17,14.17,0,0,1-1.31-4.9c0-.34-.08-.76-.12-1.25V68.69c0-.54.08-1,.12-1.31a13.33,13.33,0,0,1,1.25-4.91,13.3,13.3,0,0,1,7.36-6.67A16.1,16.1,0,0,1,63.4,54.84Zm6.9,12.82a6.94,6.94,0,0,0-.85-2.91,5.29,5.29,0,0,0-1.6-1.88A5.51,5.51,0,0,0,65.74,62a9.88,9.88,0,0,0-4.67,0,5.51,5.51,0,0,0-2.11.91,5.73,5.73,0,0,0-1.65,1.88,7.43,7.43,0,0,0-.8,2.91q-.06.45-.12,1.14v2.91q.06.67.12,1.08a7.85,7.85,0,0,0,.8,3A5.85,5.85,0,0,0,59,77.58a6.33,6.33,0,0,0,2.11,1,12,12,0,0,0,4.67,0,6.33,6.33,0,0,0,2.11-1,5.38,5.38,0,0,0,1.6-1.83,7.33,7.33,0,0,0,.85-3,7.7,7.7,0,0,0,.06-1.08V68.8A8.9,8.9,0,0,0,70.3,67.66Z" transform="translate(-0.77 -0.15)"/><path class="cls-1" d="M98,62.25q-3.42,0-5,1.53c-1,1-1.48,2.63-1.48,4.91V83.51a1.49,1.49,0,0,1-.45,1.08,1.52,1.52,0,0,1-1.09.46H85.73a1.48,1.48,0,0,1-1.08-.46,1.46,1.46,0,0,1-.46-1.08V56.94a1.55,1.55,0,0,1,1.54-1.53h4.33a1.54,1.54,0,0,1,1.54,1.53v1.32a11.33,11.33,0,0,1,3.14-2.11,11.17,11.17,0,0,1,4.44-.74h2.57a1.47,1.47,0,0,1,1.08.45,1.52,1.52,0,0,1,.46,1.08v3.77a1.5,1.5,0,0,1-.46,1.08,1.48,1.48,0,0,1-1.08.46Z" transform="translate(-0.77 -0.15)"/><path class="cls-1" d="M115.37,73.7v9.81a1.5,1.5,0,0,1-.46,1.08,1.48,1.48,0,0,1-1.08.46H109.5a1.52,1.52,0,0,1-1.09-.46,1.49,1.49,0,0,1-.45-1.08V46.11a1.54,1.54,0,0,1,1.54-1.53h4.33a1.47,1.47,0,0,1,1.08.45,1.52,1.52,0,0,1,.46,1.08v18l9.52-7.7a9.54,9.54,0,0,1,.85-.62,2.6,2.6,0,0,1,1.37-.34h5.81a1.34,1.34,0,0,1,1,.39,1.31,1.31,0,0,1,.4,1,1.65,1.65,0,0,1-.11.57,1.22,1.22,0,0,1-.52.57L120.38,68.63l14.54,14a2.26,2.26,0,0,1,.45.57,1.14,1.14,0,0,1,.12.52,1.37,1.37,0,0,1-1.37,1.37h-5.53a3,3,0,0,1-1.48-.35,4.27,4.27,0,0,1-.86-.62Z" transform="translate(-0.77 -0.15)"/><path class="cls-1" d="M155.92,85.62a13.55,13.55,0,0,1-3.19-.35,12.77,12.77,0,0,1-2.45-.85,10.36,10.36,0,0,1-1.77-1.08,12.45,12.45,0,0,1-1.2-1.14V94.34a1.49,1.49,0,0,1-.45,1.08,1.52,1.52,0,0,1-1.09.46h-4.33a1.48,1.48,0,0,1-1.08-.46,1.46,1.46,0,0,1-.46-1.08V56.94a1.55,1.55,0,0,1,1.54-1.53h4.33a1.54,1.54,0,0,1,1.54,1.53v1.32a8.27,8.27,0,0,1,1.2-1.09A8.43,8.43,0,0,1,150.28,56a12.76,12.76,0,0,1,5.64-1.19,12,12,0,0,1,9.06,4.1,13.23,13.23,0,0,1,2.57,4.27,15.29,15.29,0,0,1,1.08,5c0,.57.06,1.24.06,2s0,1.42-.06,2a15.75,15.75,0,0,1-1.08,5.07A14.07,14.07,0,0,1,165,81.57a12.34,12.34,0,0,1-3.93,3A11.84,11.84,0,0,1,155.92,85.62Zm5.3-13.8a15.46,15.46,0,0,0,0-3.19q-.34-3.7-2.28-5.3a7.6,7.6,0,0,0-9.46,0,6.83,6.83,0,0,0-2.17,4.73,21.36,21.36,0,0,0,0,4.33,6.62,6.62,0,0,0,6.9,6.39,7.22,7.22,0,0,0,4.73-1.6Q160.88,75.53,161.22,71.82Z" transform="translate(-0.77 -0.15)"/><path class="cls-1" d="M182.54,83.51a1.49,1.49,0,0,1-.45,1.08,1.52,1.52,0,0,1-1.08.46h-4.34a1.57,1.57,0,0,1-1.54-1.54V46.11a1.52,1.52,0,0,1,.46-1.08,1.49,1.49,0,0,1,1.08-.45H181a1.54,1.54,0,0,1,1.53,1.53Z" transform="translate(-0.77 -0.15)"/><path class="cls-1" d="M190.32,62.7a8.42,8.42,0,0,1,1-2.56,10.35,10.35,0,0,1,2.34-2.57,12.69,12.69,0,0,1,3.7-1.94,15.27,15.27,0,0,1,5.13-.79,16.26,16.26,0,0,1,5.25.79,11,11,0,0,1,4,2.23,9.55,9.55,0,0,1,2.62,3.76,13.38,13.38,0,0,1,.91,5.13V83.51a1.49,1.49,0,0,1-.45,1.08,1.52,1.52,0,0,1-1.09.46h-4.33a1.48,1.48,0,0,1-1.08-.46,1.46,1.46,0,0,1-.46-1.08V81.63a9.89,9.89,0,0,1-3.48,2.85,12.46,12.46,0,0,1-5.7,1.14,14.12,14.12,0,0,1-4.38-.63,9.3,9.3,0,0,1-3.25-1.88,8.73,8.73,0,0,1-2.06-2.8,9.37,9.37,0,0,1-.68-3.59,7.42,7.42,0,0,1,2.79-6.15,16.2,16.2,0,0,1,7.47-3l9.29-1.6a3.6,3.6,0,0,0-1.54-3.31,7.08,7.08,0,0,0-3.82-1,5.14,5.14,0,0,0-2.22.39,6.91,6.91,0,0,0-1.54,1.09,3.08,3.08,0,0,1-1,.62,2.17,2.17,0,0,1-.91.18h-5.3a1.44,1.44,0,0,1-1-.35A.89.89,0,0,1,190.32,62.7Zm9.52,16.08a10.42,10.42,0,0,0,3.42-.52,7.89,7.89,0,0,0,2.57-1.48,6.12,6.12,0,0,0,1.54-2,5.67,5.67,0,0,0,.51-2.34v-.57l-7.75,1.37a7.63,7.63,0,0,0-3.36,1.2,2.36,2.36,0,0,0-1,2,1.86,1.86,0,0,0,1.2,1.77A6.92,6.92,0,0,0,199.84,78.78Z" transform="translate(-0.77 -0.15)"/><path class="cls-1" d="M228.81,68.23a16.58,16.58,0,0,0-.11,2,16.41,16.41,0,0,0,.11,2,8.61,8.61,0,0,0,.8,3,6.53,6.53,0,0,0,1.54,2.05,7.33,7.33,0,0,0,2.11,1.14,8,8,0,0,0,2.34.35,10.68,10.68,0,0,0,2.39-.23,5.68,5.68,0,0,0,1.65-.63,5.58,5.58,0,0,0,1.14-1,10.14,10.14,0,0,0,1-1.25,10.26,10.26,0,0,1,.8-1,1.41,1.41,0,0,1,1.08-.51H248a1.51,1.51,0,0,1,1.08.45,1.29,1.29,0,0,1,.46,1.09,8.14,8.14,0,0,1-.86,2.9,10.83,10.83,0,0,1-2.51,3.31,13.91,13.91,0,0,1-4.27,2.62,16.44,16.44,0,0,1-6.27,1.09,13.92,13.92,0,0,1-10-3.88,14.32,14.32,0,0,1-2.91-4.16,16.32,16.32,0,0,1-1.26-5,22.33,22.33,0,0,1-.11-2.28c0-.83,0-1.61.11-2.33a14.55,14.55,0,0,1,1.26-5,13.33,13.33,0,0,1,2.91-4.16,12.85,12.85,0,0,1,4.33-2.85,14.55,14.55,0,0,1,5.7-1.08,16.44,16.44,0,0,1,6.27,1.08,13.28,13.28,0,0,1,4.27,2.68,10.19,10.19,0,0,1,2.51,3.25,8.19,8.19,0,0,1,.86,2.9,1.29,1.29,0,0,1-.46,1.09,1.51,1.51,0,0,1-1.08.45h-4.34a1.41,1.41,0,0,1-1.08-.51,9.24,9.24,0,0,1-.8-1,7.27,7.27,0,0,0-1-1.19,3.86,3.86,0,0,0-1.14-1A5,5,0,0,0,238,61.9a10.74,10.74,0,0,0-2.39-.22,7.18,7.18,0,0,0-2.34.39,6.12,6.12,0,0,0-2.11,1.14,6,6,0,0,0-1.54,2A8.67,8.67,0,0,0,228.81,68.23Z" transform="translate(-0.77 -0.15)"/><path class="cls-1" d="M254.18,70.23a18.3,18.3,0,0,1,1-6,14.14,14.14,0,0,1,2.8-4.9A12.9,12.9,0,0,1,262.33,56a13.83,13.83,0,0,1,5.82-1.19A13.43,13.43,0,0,1,273.91,56a13.26,13.26,0,0,1,7.23,7.75,15,15,0,0,1,1,5.53v2.57a1.57,1.57,0,0,1-1.54,1.54h-19a5.15,5.15,0,0,0,.52,2.33,5.59,5.59,0,0,0,1.48,1.66,6.37,6.37,0,0,0,2.11,1,8.79,8.79,0,0,0,2.45.35,10.47,10.47,0,0,0,3-.35,6.49,6.49,0,0,0,1.88-1,5.54,5.54,0,0,1,1-.62,2.71,2.71,0,0,1,1.08-.17h4.56a1.51,1.51,0,0,1,1.09.45,1.25,1.25,0,0,1,.45,1.09,4.62,4.62,0,0,1-.91,2.05,9.45,9.45,0,0,1-2.45,2.45,15.76,15.76,0,0,1-4.11,2.05,16.52,16.52,0,0,1-5.58.86,15.16,15.16,0,0,1-5.82-1.09A12.58,12.58,0,0,1,258,81.34a14.24,14.24,0,0,1-2.8-4.84A19.54,19.54,0,0,1,254.18,70.23Zm14-8.55a7.26,7.26,0,0,0-2.85.51,6.06,6.06,0,0,0-3.19,3,6.66,6.66,0,0,0-.52,1.77h12.89a8.27,8.27,0,0,0-.46-1.77,4,4,0,0,0-1-1.71,4.47,4.47,0,0,0-1.88-1.25A7.32,7.32,0,0,0,268.15,61.68Z" transform="translate(-0.77 -0.15)"/></svg>